<svg xmlns="http://www.w3.org/2000/svg" xmlns:xlink="http://www.w3.org/1999/xlink" viewBox="0 0 278 250" preserveAspectRatio="xMidYMid" style="display: block; shape-rendering: auto; background: transparent;" width="278" height="250"><style type="text/css">
  .ld-text text {
    text-anchor: middle;
    dominant-baseline: middle;
    font-size: 80px;
    opacity: 0;
    user-select: none;
    pointer-events: none;
  }
</style>
<g style="transform-origin:139px 125px;transform:scale(1)" class="ld-text">
<g transform="translate(139,125)">
  <g transform="scale(1.0000) translate(0,0)"><g class="path" style="opacity: 1; transform-origin: -104.08px 12.94px; transform: matrix3d(1, 0, 0, 0, 0, 1, 0, 0, 0, 0, 1, 0, 0, 0, 0, 1); animation: 0.793651s linear -0.44898s infinite normal forwards running animate-p3e2wsrtpf; transform-box: view-box;"><path d="M6.40-6.88L17.76-8.88L16.88 17.20L37.28-8.72L45.44-3.28L27.04 18.08L46.56 41.20L36.32 47.60L16.80 20L16.64 25.92L17.60 46.72L6.40 46.72L7.36 27.28L6.40-6.88" style="fill: rgb(240, 192, 32);" transform="translate(-130.560,-23.360)"></path></g><g class="path" style="opacity: 1; transform-origin: -66.6px 15.82px; transform: matrix3d(1, 0, 0, 0, 0, 1, 0, 0, 0, 0, 1, 0, 0, 0, 0, 1); animation: 0.793651s linear -0.37415s infinite normal forwards running animate-p3e2wsrtpf; transform-box: view-box;"><path d="M65.28 38.56L65.28 38.56Q67.60 38.56 70.16 37.36Q72.72 36.16 74.16 34.96L74.16 34.96L75.60 33.76L79.28 38.24Q78.48 39.60 76.80 41.36Q75.12 43.12 73.40 44.36Q71.68 45.60 68.84 46.60Q66 47.60 62.96 47.60L62.96 47.60Q56.48 47.60 52.40 42.68Q48.32 37.76 48.32 30L48.32 30Q48.32 20.24 54 12.88Q59.68 5.52 67.28 5.52L67.28 5.52Q73.12 5.52 76.36 8.80Q79.60 12.08 79.60 18L79.60 18Q79.60 21.52 78.40 26L78.40 26L76.80 27.68L56.80 29.52Q58.16 38.56 65.28 38.56 zM65.28 13.76L65.28 13.76Q61.76 13.76 59.36 16.60Q56.96 19.44 56.56 23.84L56.56 23.84L70.16 22.16Q70.40 20.32 70.40 19.12L70.40 19.12Q70.40 13.76 65.28 13.76" style="fill: rgb(240, 192, 32);" transform="translate(-130.560,-23.360)"></path></g><g class="path" style="opacity: 1; transform-origin: -27.92px 15.54px; transform: matrix3d(1, 0, 0, 0, 0, 1, 0, 0, 0, 0, 1, 0, 0, 0, 0, 1); animation: 0.793651s linear -0.29932s infinite normal forwards running animate-p3e2wsrtpf; transform-box: view-box;"><path d="M109.76 26.48Q109.76 20.96 108.80 19.12Q107.84 17.28 104.32 17.28Q100.80 17.28 96.32 20.08L96.32 20.08L96.32 25.92L97.20 44.72L86.48 46.72L87.44 27.28Q87.12 16.56 85.68 8.08L85.68 8.08L95.36 6Q95.92 10.64 96.16 15.04L96.16 15.04Q97.36 13.44 98.88 11.88Q100.40 10.32 103.68 8.36Q106.96 6.40 110.60 6.40Q114.24 6.40 116.72 9.24Q119.20 12.08 119.20 16.96L119.20 16.96L118.72 25.92L119.60 45.12L108.80 47.12L109.76 26.48" style="fill: rgb(240, 192, 32);" transform="translate(-130.560,-23.360)"></path></g><g class="path" style="opacity: 1; transform-origin: 13.92px 15.54px; transform: matrix3d(1, 0, 0, 0, 0, 1, 0, 0, 0, 0, 1, 0, 0, 0, 0, 1); animation: 0.793651s linear -0.22449s infinite normal forwards running animate-p3e2wsrtpf; transform-box: view-box;"><path d="M151.60 26.48Q151.60 20.96 150.64 19.12Q149.68 17.28 146.16 17.28Q142.64 17.28 138.16 20.08L138.16 20.08L138.16 25.92L139.04 44.72L128.32 46.72L129.28 27.28Q128.96 16.56 127.52 8.08L127.52 8.08L137.20 6Q137.76 10.64 138 15.04L138 15.04Q139.20 13.44 140.72 11.88Q142.24 10.32 145.52 8.36Q148.80 6.40 152.44 6.40Q156.08 6.40 158.56 9.24Q161.04 12.08 161.04 16.96L161.04 16.96L160.56 25.92L161.44 45.12L150.64 47.12L151.60 26.48" style="fill: rgb(240, 192, 32);" transform="translate(-130.560,-23.360)"></path></g><g class="path" style="opacity: 1; transform-origin: 52.76px 15.82px; transform: matrix3d(1, 0, 0, 0, 0, 1, 0, 0, 0, 0, 1, 0, 0, 0, 0, 1); animation: 0.793651s linear -0.14966s infinite normal forwards running animate-p3e2wsrtpf; transform-box: view-box;"><path d="M184.64 38.56L184.64 38.56Q186.96 38.56 189.52 37.36Q192.08 36.16 193.52 34.96L193.52 34.96L194.96 33.76L198.64 38.24Q197.84 39.60 196.16 41.36Q194.48 43.12 192.76 44.36Q191.04 45.60 188.20 46.60Q185.36 47.60 182.32 47.60L182.32 47.60Q175.84 47.60 171.76 42.68Q167.68 37.76 167.68 30L167.68 30Q167.68 20.24 173.36 12.88Q179.04 5.52 186.64 5.52L186.64 5.52Q192.48 5.52 195.72 8.80Q198.96 12.08 198.96 18L198.96 18Q198.96 21.52 197.76 26L197.76 26L196.16 27.68L176.16 29.52Q177.52 38.56 184.64 38.56 zM184.64 13.76L184.64 13.76Q181.12 13.76 178.72 16.60Q176.32 19.44 175.92 23.84L175.92 23.84L189.52 22.16Q189.76 20.32 189.76 19.12L189.76 19.12Q189.76 13.76 184.64 13.76" style="fill: rgb(240, 192, 32);" transform="translate(-130.560,-23.360)"></path></g><g class="path" style="opacity: 1; transform-origin: 85.44px 13.46px; transform: matrix3d(1, 0, 0, 0, 0, 1, 0, 0, 0, 0, 1, 0, 0, 0, 0, 1); animation: 0.793651s linear -0.0748299s infinite normal forwards running animate-p3e2wsrtpf; transform-box: view-box;"><path d="M204.40 8L209.04 8L209.04-0.72L219.84-2.80L218.80 8L228.48 8L227.60 14.56L218.48 14.56L218.08 31.28Q218.08 35.04 218.80 36.28Q219.52 37.52 221.44 37.52Q223.36 37.52 226.56 36.64L226.56 36.64L227.04 42.32Q221.76 46.72 217.76 46.72Q213.76 46.72 211.20 43.80Q208.64 40.88 208.64 36.16L208.64 36.16L209.12 27.20L209.04 14.56L203.52 14.56L204.40 8" style="fill: rgb(240, 192, 32);" transform="translate(-130.560,-23.360)"></path></g><g class="path" style="opacity: 1; transform-origin: 120.36px 11.3px; transform: matrix3d(1, 0, 0, 0, 0, 1, 0, 0, 0, 0, 1, 0, 0, 0, 0, 1); animation: 0.793651s linear 0s infinite normal forwards running animate-p3e2wsrtpf; transform-box: view-box;"><path d="M257.68 26.48Q257.68 20.96 256.72 19.12Q255.76 17.28 252.24 17.28Q248.72 17.28 244.24 20.08L244.24 20.08L244.24 25.92L245.12 44.72L234.32 46.72L235.28 27.28L234.32-13.20L245.28-15.20L244.24 5.52L244.24 14.88Q245.44 13.28 246.96 11.76Q248.48 10.24 251.68 8.32Q254.88 6.40 258.52 6.40Q262.16 6.40 264.64 9.24Q267.12 12.08 267.12 16.96L267.12 16.96L266.64 25.92L267.52 45.12L256.72 47.12L257.68 26.48" style="fill: rgb(240, 192, 32);" transform="translate(-130.560,-23.360)"></path></g></g><text dy="0.35em" fill="#f0c020" font-family="Acme" font-size="80">Kenneth</text>
</g>
</g><style type="text/css">@keyframes animate-p3e2wsrtpf { 0.00% {transform: translate(0.00px,0.00px) rotate(0.00deg) scale(1.00, 1.00) skew(0deg, 0.00deg) ;opacity: 1.00;}2.00% {animation-timing-function: cubic-bezier(0.20,0.39,0.50,0.97);transform: translate(0.00px,-1.08px) rotate(0.00deg) ;}36.00% {animation-timing-function: cubic-bezier(0.50,0.03,0.80,0.61);transform: translate(0.00px,-10.00px) rotate(0.00deg) ;}72.00% {transform: translate(0.00px,-0.12px) rotate(0.00deg) ;}74.00% {animation-timing-function: cubic-bezier(0.24,0.43,0.48,0.91);transform: translate(0.00px,0.00px) rotate(0.00deg) scale(1.00, 0.95) ;}86.00% {animation-timing-function: cubic-bezier(0.53,0.08,0.77,0.57);transform: translate(0.00px,0.00px) rotate(0.00deg) scale(1.00, 0.80) ;}100.00% {animation-timing-function: cubic-bezier(0.53,0.08,0.77,0.57);transform: translate(0.00px,0.00px) rotate(0.00deg) scale(1.00, 1.00) ;} }</style><!-- [ldio] generated by https://loading.io --></svg>