<svg xmlns="http://www.w3.org/2000/svg" xmlns:xlink="http://www.w3.org/1999/xlink" viewBox="0 0 280 250" preserveAspectRatio="xMidYMid" style="display: block; shape-rendering: auto; background: transparent;" width="280" height="250"><style type="text/css">
  .ld-text text {
    text-anchor: middle;
    dominant-baseline: middle;
    font-size: 80px;
    opacity: 0;
    user-select: none;
    pointer-events: none;
  }
</style>
<g style="transform-origin:140px 125px;transform:scale(1)" class="ld-text">
<g transform="translate(140,125)">
  <g transform="scale(1.0000) translate(0,0)"><g class="path" style="opacity: 1; transform-origin: -60.08px 12.21px; transform: matrix3d(1, 0, 0, 0, 0, 1, 0, 0, 0, 0, 1, 0, 0, 0, 0, 1); animation: 1s linear -0.528s infinite normal forwards running animate-i1ta3twjfo; transform-box: view-box;"><path d="M20.72 23.81L20.72 23.81L16.16 23.81L16.16 24.29L17.12 45.09L6.40 45.09L7.36 25.65L6.40-10.11L23.76-10.11Q31.44-10.11 36-5.95Q40.56-1.79 40.56 5.09L40.56 5.09Q40.56 10.29 37.88 14.57Q35.20 18.85 30.64 21.33L30.64 21.33L44.56 41.01L34.88 45.97L22.40 23.73Q21.84 23.81 20.72 23.81 zM20.88-2.03L20.88-2.03L16.96-2.03L16.40 16.05L21.84 16.05Q25.84 16.05 28.04 13.41Q30.24 10.77 30.24 5.89L30.24 5.89Q30.24-2.03 20.88-2.03" style="fill: rgb(255, 211, 23);" transform="translate(-85.560,-22.544)"></path></g><g class="path" style="opacity: 1; transform-origin: -21.52px 15.01px; transform: matrix3d(1, 0, 0, 0, 0, 1, 0, 0, 0, 0, 1, 0, 0, 0, 0, 1); animation: 1s linear -0.396s infinite normal forwards running animate-i1ta3twjfo; transform-box: view-box;"><path d="M65.36 36.93L65.36 36.93Q67.68 36.93 70.24 35.73Q72.80 34.53 74.24 33.33L74.24 33.33L75.68 32.13L79.36 36.61Q78.56 37.97 76.88 39.73Q75.20 41.49 73.48 42.73Q71.76 43.97 68.92 44.97Q66.08 45.97 63.04 45.97L63.04 45.97Q56.56 45.97 52.48 41.05Q48.40 36.13 48.40 28.37L48.40 28.37Q48.40 18.61 54.08 11.25Q59.76 3.89 67.36 3.89L67.36 3.89Q73.20 3.89 76.44 7.17Q79.68 10.45 79.68 16.37L79.68 16.37Q79.68 19.89 78.48 24.37L78.48 24.37L76.88 26.05L56.88 27.89Q58.24 36.93 65.36 36.93 zM65.36 12.13L65.36 12.13Q61.84 12.13 59.44 14.97Q57.04 17.81 56.64 22.21L56.64 22.21L70.24 20.53Q70.48 18.69 70.48 17.49L70.48 17.49Q70.48 12.13 65.36 12.13" style="fill: rgb(255, 211, 23);" transform="translate(-85.560,-22.544)"></path></g><g class="path" style="opacity: 1; transform-origin: 15px 14.5px; transform: matrix3d(1, 0, 0, 0, 0, 1, 0, 0, 0, 0, 1, 0, 0, 0, 0, 1); animation: 1s linear -0.264s infinite normal forwards running animate-i1ta3twjfo; transform-box: view-box;"><path d="M94.64 45.09Q89.92 45.09 86.92 42.09Q83.92 39.09 83.92 34.01Q83.92 28.93 88.56 25.21Q93.20 21.49 99.84 21.49L99.84 21.49L105.28 21.49L105.28 20.13Q105.28 16.21 103.68 14.77Q102.08 13.33 97.68 13.33L97.68 13.33Q95.84 13.33 93.32 14.09Q90.80 14.85 87.68 16.45L87.68 16.45L85.36 10.13Q88.80 7.73 93.72 5.81Q98.64 3.89 101.84 3.89L101.84 3.89Q114.40 3.89 114.40 16.05L114.40 16.05L114.40 31.73Q114.40 36.21 117.20 41.73L117.20 41.73L108.72 45.33Q106.72 41.49 105.76 38.45L105.76 38.45Q101.36 45.09 94.64 45.09L94.64 45.09 zM98 36.93L98 36.93Q101.20 36.93 105.28 33.65L105.28 33.65L105.28 28.29Q101.04 27.33 98.40 27.33L98.40 27.33Q93.36 27.33 93.36 31.81L93.36 31.81Q93.36 34.13 94.64 35.53Q95.92 36.93 98 36.93" style="fill: rgb(255, 211, 23);" transform="translate(-85.560,-22.544)"></path></g><g class="path" style="opacity: 1; transform-origin: 50.2px 15.01px; transform: matrix3d(1, 0, 0, 0, 0, 1, 0, 0, 0, 0, 1, 0, 0, 0, 0, 1); animation: 1s linear -0.132s infinite normal forwards running animate-i1ta3twjfo; transform-box: view-box;"><path d="M137.92 14.29Q134.40 14.29 132.48 16.81Q130.56 19.33 130.56 24.53Q130.56 29.73 132.52 32.89Q134.48 36.05 138.24 36.05L138.24 36.05Q140.16 36.05 142 34.85Q143.84 33.65 144.80 32.45L144.80 32.45L145.68 31.17L149.68 35.33Q149.44 35.73 149.08 36.45Q148.72 37.17 147.32 39.01Q145.92 40.85 144.36 42.25Q142.80 43.65 140.32 44.81Q137.84 45.97 135.12 45.97L135.12 45.97Q129.12 45.97 125.36 41.09Q121.60 36.21 121.60 28.37L121.60 28.37Q121.60 18.61 127.28 11.25Q132.96 3.89 140.56 3.89L140.56 3.89Q142.88 3.89 145.20 4.57Q147.52 5.25 149.92 6.69L149.92 6.69L144.32 16.53Q141.44 14.29 137.92 14.29" style="fill: rgb(255, 211, 23);" transform="translate(-85.560,-22.544)"></path></g><g class="path" style="opacity: 1; transform-origin: 79.48px 12.64px; transform: matrix3d(1, 0, 0, 0, 0, 1, 0, 0, 0, 0, 1, 0, 0, 0, 0, 1); animation: 1s linear 0s infinite normal forwards running animate-i1ta3twjfo; transform-box: view-box;"><path d="M153.44 6.37L158.08 6.37L158.08-2.35L168.88-4.43L167.84 6.37L177.52 6.37L176.64 12.93L167.52 12.93L167.12 29.65Q167.12 33.41 167.84 34.65Q168.56 35.89 170.48 35.89Q172.40 35.89 175.60 35.01L175.60 35.01L176.08 40.69Q170.80 45.09 166.80 45.09Q162.80 45.09 160.24 42.17Q157.68 39.25 157.68 34.53L157.68 34.53L158.16 25.57L158.08 12.93L152.56 12.93L153.44 6.37" style="fill: rgb(255, 211, 23);" transform="translate(-85.560,-22.544)"></path></g></g><text dy="0.35em" fill="#ffd317" font-family="Acme" font-size="80">React</text>
</g>
</g><style type="text/css">@keyframes animate-i1ta3twjfo { 0.00% {transform: translate(0.00px,0.00px) rotate(0.00deg) scale(1.00, 1.00) skew(0deg, 0.00deg) ;opacity: 1.00;}2.00% {animation-timing-function: cubic-bezier(0.20,0.39,0.50,0.97);transform: translate(0.00px,-1.08px) rotate(0.00deg) ;}36.00% {animation-timing-function: cubic-bezier(0.50,0.03,0.80,0.61);transform: translate(0.00px,-10.00px) rotate(0.00deg) ;}72.00% {transform: translate(0.00px,-0.12px) rotate(0.00deg) ;}74.00% {animation-timing-function: cubic-bezier(0.24,0.43,0.48,0.91);transform: translate(0.00px,0.00px) rotate(0.00deg) scale(1.00, 0.95) ;}86.00% {animation-timing-function: cubic-bezier(0.53,0.08,0.77,0.57);transform: translate(0.00px,0.00px) rotate(0.00deg) scale(1.00, 0.80) ;}100.00% {animation-timing-function: cubic-bezier(0.53,0.08,0.77,0.57);transform: translate(0.00px,0.00px) rotate(0.00deg) scale(1.00, 1.00) ;} }</style><!-- [ldio] generated by https://loading.io --></svg>